<svg width="161" height="22" viewBox="0 0 161 22" fill="none" xmlns="http://www.w3.org/2000/svg">
    <path fill-rule="evenodd" clip-rule="evenodd" d="M89.4678 16.2597H104.342V21.5565H84.8914C80.2909 21.1834 80.5591 16.5085 80.5824 16.1945L95.3317 5.29688H80.4941V0H99.5701C104.968 0 104.317 5.29688 104.317 5.29688L104.339 5.29888L89.4678 16.2597Z" fill="#5E5E5E"/>
    <path fill-rule="evenodd" clip-rule="evenodd" d="M26.5293 12.9467V0H31.8237V11.6928C31.8237 14.9606 35.6901 16.4246 38.4015 16.4246C41.1253 16.4246 45.0212 14.9867 45.0212 11.6928V0H50.3156V12.9467C50.3156 18.8936 43.4243 21.8432 38.4015 21.8432C33.3906 21.8432 26.5293 18.8673 26.5293 12.9467Z" fill="#5E5E5E"/>
    <path fill-rule="evenodd" clip-rule="evenodd" d="M53.5293 12.9467V0H58.8237V11.6928C58.8237 14.9606 62.6901 16.4246 65.4015 16.4246C68.1253 16.4246 72.0212 14.9867 72.0212 11.6928V0H77.3156V12.9467C77.3156 18.8936 70.4243 21.8432 65.4015 21.8432C60.3906 21.8432 53.5293 18.8673 53.5293 12.9467Z" fill="#5E5E5E"/>
    <path fill-rule="evenodd" clip-rule="evenodd" d="M4.70343 0H16.888C22.5412 0 25.866 6.16296 21.7809 10.6788C25.8327 15.3161 23.3214 21.5668 16.5401 21.5668C10.6052 21.5668 5.92518 21.5565 0.0027745 21.5565C0.0027745 15.6522 0.000615955 9.74319 0 3.83506C0.229443 2.26719 1.17155 0 4.70343 0ZM5.30676 13.4465H16.5379C17.3133 13.4465 17.9471 14.0802 17.9471 14.853V14.8532C17.9471 15.626 17.3123 16.2597 16.5379 16.2597H5.30676V13.4465ZM5.30676 5.29534H16.5379C17.3133 5.29534 17.9471 5.92904 17.9471 6.70183V6.70198C17.9471 7.47477 17.3123 8.10847 16.5379 8.10847H5.30676V5.29534Z" fill="#5E5E5E"/>
    <path fill-rule="evenodd" clip-rule="evenodd" d="M109.001 16.2597C109.078 12.987 110.572 12.0482 113.026 11.5L125.984 7.55654L126.984 7.05654C128.5 6 128.5 4.5 125.616 4.20993H122.363H119.984H118.484H116.484C116.484 4.20993 115.001 4.11308 113.984 5.05654C112.967 6 112.984 8 112.984 8H109.001V5.78179C109 3 111.2 0 115.026 0H127.233C130.419 0 133.026 2.60179 133.026 5.78179C133.026 7.58159 132.357 10.091 129.422 10.9231L115.446 14.885C114.026 15 113.984 17.0565 115.446 17.0565H123.484H130.984C131.901 16.893 132.532 16.9054 133.026 16V21.5565H109.001V18.0381L109.001 18.0034C109 17.9829 109 16.4358 109 16.4134L109.001 16.3353V16.2597Z" fill="#FF8A00"/>
    <path fill-rule="evenodd" clip-rule="evenodd" d="M155.04 5.29703H151.485L143.743 13.0359H155.04V5.29703ZM149.475 0.116504V0.000153848H155.04H157.183H160.347V21.5567H155.04V18.3327H141.138C137.155 18.1717 136.594 14.9293 136.537 13.5495V13.0362L136.536 13.0359L149.392 0L149.475 0.116504Z" fill="#FF8A00"/>
</svg>
