<svg width="71" height="70" viewBox="0 0 71 70" fill="none" xmlns="http://www.w3.org/2000/svg">
<path fill-rule="evenodd" clip-rule="evenodd" d="M41.7097 17.0787L25.034 23.6447L25.056 17.0787H17.6464L17.6205 17.0789L4.72119 39.3796L4.72196 4.22638L12.0598 0L41.7097 17.0787Z" fill="#FF8A00"/>
<path fill-rule="evenodd" clip-rule="evenodd" d="M53.2997 41.1621L46.3945 23.6847L53.2994 23.6859L53.2991 17.0995L30.9561 4.22461H66.1745L70.4198 11.5655L53.2997 41.1621Z" fill="#FF8A00"/>
<path fill-rule="evenodd" clip-rule="evenodd" d="M29.1951 52.7098L45.9885 46.0894V52.7105H49.8251H53.2805L66.179 30.4092V65.565L58.8364 69.7908L29.1951 52.7098Z" fill="#FF8A00"/>
<path fill-rule="evenodd" clip-rule="evenodd" d="M17.6 29.0186L24.1077 45.4831H17.6035L17.6007 53.0539L39.943 65.9289H4.71773L0.485352 58.5981L17.6 29.0186Z" fill="#FF8A00"/>
</svg>
